<?xml version="1.0" standalone="no"?>
<!DOCTYPE svg PUBLIC "-//W3C//DTD SVG 20010904//PT"
 "http://www.w3.org/TR/2001/REC-SVG-20010904/DTD/svg10.dtd">
<svg version="1.0" xmlns="http://www.w3.org/2000/svg"
 width="2000.000000pt" height="2000.000000pt" viewBox="0 0 2000.000000 2000.000000"
 preserveAspectRatio="xMidYMid meet">

<g transform="translate(0.000000,2000.000000) scale(0.100000,-0.100000)"
fill="#000000" stroke="none">
<path d="M9735 18218 c-43 -11 -59 -17 -117 -42 -20 -9 -46 -16 -57 -16 -12 0
-30 -4 -41 -10 -11 -5 -28 -14 -38 -19 -10 -5 -38 -12 -62 -16 -24 -4 -51 -11
-60 -16 -31 -17 -93 -39 -111 -39 -11 0 -29 -5 -42 -12 -50 -25 -59 -29 -102
-35 -25 -3 -48 -10 -51 -14 -3 -5 -15 -9 -28 -9 -12 0 -26 -4 -32 -8 -5 -5
-36 -17 -69 -26 -33 -9 -67 -21 -76 -26 -9 -5 -33 -12 -53 -15 -20 -4 -39 -11
-42 -16 -3 -5 -16 -9 -30 -9 -13 0 -32 -4 -42 -10 -25 -14 -110 -40 -130 -40
-9 0 -39 -11 -67 -25 -27 -13 -60 -25 -73 -25 -12 0 -32 -5 -45 -12 -43 -22
-53 -26 -95 -33 -23 -4 -72 -18 -108 -31 -37 -13 -77 -24 -90 -24 -13 0 -38
-9 -56 -20 -18 -11 -52 -22 -75 -26 -24 -3 -46 -10 -49 -15 -3 -5 -16 -9 -29
-9 -13 0 -27 -4 -30 -10 -3 -5 -28 -12 -56 -16 -27 -4 -52 -11 -55 -15 -3 -5
-13 -9 -23 -9 -16 0 -59 -17 -103 -41 -10 -5 -27 -9 -38 -9 -11 0 -28 -4 -38
-9 -31 -15 -116 -41 -138 -41 -11 0 -24 -3 -28 -7 -10 -11 -98 -43 -117 -43
-8 0 -33 -8 -55 -19 -21 -10 -59 -22 -84 -26 -24 -4 -51 -11 -60 -16 -25 -14
-109 -39 -130 -39 -10 0 -34 -9 -52 -19 -18 -10 -49 -22 -68 -26 -19 -3 -44
-10 -55 -15 -63 -26 -109 -40 -136 -40 -16 0 -42 -9 -58 -21 -15 -11 -47 -23
-70 -26 -23 -3 -44 -10 -47 -14 -3 -5 -16 -9 -29 -9 -13 0 -26 -4 -30 -9 -3
-6 -26 -13 -50 -17 -25 -3 -48 -10 -51 -15 -3 -5 -15 -9 -28 -9 -31 0 -102
-36 -110 -55 -3 -9 -6 -194 -6 -411 l0 -394 -649 0 -650 0 -15 -22 c-14 -20
-16 -104 -16 -715 l0 -693 -1102 -2 -1102 -3 -15 -26 c-14 -24 -13 -31 13 -85
16 -33 33 -69 37 -81 5 -13 13 -33 18 -45 6 -13 13 -34 17 -48 6 -23 20 -55
80 -188 13 -29 24 -59 24 -67 0 -8 8 -29 19 -48 10 -18 22 -49 26 -68 4 -19
11 -38 15 -44 3 -5 20 -41 35 -80 16 -38 32 -74 35 -80 4 -5 10 -23 14 -40 4
-16 15 -48 25 -70 43 -89 69 -155 76 -184 4 -18 22 -62 41 -98 19 -37 34 -73
34 -80 0 -7 8 -27 19 -46 10 -18 22 -47 26 -65 3 -17 14 -48 24 -69 33 -68 49
-107 67 -163 10 -30 27 -70 36 -88 10 -18 18 -38 18 -44 0 -6 14 -41 31 -77
17 -36 34 -75 39 -86 4 -11 13 -32 20 -47 18 -38 15 -73 -10 -126 -49 -106
-68 -149 -85 -194 -9 -26 -21 -50 -26 -53 -5 -4 -9 -15 -9 -25 0 -11 -6 -34
-14 -52 -21 -49 -41 -99 -56 -138 -7 -19 -17 -39 -22 -45 -4 -5 -8 -16 -8 -25
0 -8 -11 -37 -25 -64 -14 -27 -25 -53 -25 -58 0 -9 -42 -105 -61 -140 -5 -10
-9 -23 -9 -30 0 -7 -11 -34 -24 -60 -13 -25 -26 -58 -30 -72 -7 -29 -45 -117
-76 -179 -11 -22 -20 -44 -20 -49 0 -15 -70 -189 -86 -215 -8 -12 -14 -29 -14
-36 0 -13 -19 -59 -41 -99 -5 -10 -9 -22 -9 -28 0 -6 -11 -33 -25 -62 -14 -28
-25 -57 -25 -63 0 -6 -11 -34 -25 -61 -14 -27 -25 -55 -25 -62 0 -7 -13 -40
-30 -74 -32 -64 -38 -106 -18 -126 9 -9 272 -12 1120 -12 l1108 0 0 -179 0
-180 35 -60 c19 -32 35 -65 35 -71 0 -7 9 -24 19 -39 10 -14 38 -62 61 -106
23 -44 59 -106 81 -139 21 -32 39 -61 39 -64 0 -3 10 -19 23 -36 13 -17 37
-56 55 -86 29 -52 152 -231 224 -329 18 -24 37 -52 43 -61 27 -46 324 -422
432 -548 261 -303 532 -587 788 -827 77 -71 151 -142 165 -156 29 -30 325
-279 348 -294 9 -5 25 -20 35 -33 10 -12 22 -22 27 -22 5 0 22 -12 37 -28 16
-15 62 -52 103 -82 40 -30 80 -62 89 -71 15 -14 38 -31 100 -71 38 -25 81 -60
100 -80 8 -10 20 -18 26 -18 7 0 22 -11 35 -25 13 -14 29 -25 35 -25 6 0 30
-16 52 -35 23 -19 45 -35 50 -35 5 0 20 -11 33 -25 13 -14 29 -25 36 -25 6 0
17 -6 23 -13 6 -8 31 -24 56 -37 25 -13 45 -27 45 -32 0 -4 18 -15 40 -24 22
-9 40 -20 40 -25 0 -5 8 -13 18 -16 9 -4 31 -16 47 -29 17 -12 40 -25 51 -28
12 -4 29 -15 39 -26 10 -11 22 -20 27 -20 5 0 24 -11 42 -25 18 -14 37 -25 41
-25 4 0 22 -10 39 -23 17 -12 51 -33 76 -46 25 -14 49 -30 53 -38 4 -7 16 -13
25 -13 10 0 33 -11 52 -24 19 -13 45 -26 56 -30 12 -4 29 -15 39 -26 10 -11
25 -20 34 -20 9 0 26 -6 37 -14 19 -13 75 -45 129 -72 11 -6 36 -19 55 -29 19
-10 55 -29 80 -42 25 -13 52 -27 60 -32 16 -9 75 -40 100 -52 35 -17 89 -39
97 -39 4 0 19 -9 33 -20 14 -11 32 -20 40 -20 9 0 32 -11 52 -25 20 -14 44
-25 52 -25 8 0 41 -13 73 -30 31 -17 64 -30 71 -30 8 0 25 -9 39 -20 14 -11
32 -20 40 -20 8 0 38 -13 68 -30 66 -36 105 -38 169 -5 27 14 51 25 53 25 2 0
3 -22 3 -50 0 -45 -2 -50 -22 -50 -13 0 -32 7 -42 15 -35 27 -208 15 -319 -21
-27 -9 -78 -38 -113 -65 -71 -53 -76 -56 -68 -34 11 27 -15 82 -44 94 -20 8
-141 11 -410 9 -350 -3 -383 -4 -399 -21 -16 -16 -18 -40 -18 -233 0 -215 0
-216 24 -235 16 -13 39 -19 77 -19 l54 0 0 -150 0 -150 -54 0 c-38 0 -61 -6
-77 -19 -21 -17 -24 -17 -35 -3 -8 11 -33 18 -71 22 l-58 5 -6 230 c-6 254
-12 285 -75 381 -113 171 -380 244 -839 231 -331 -10 -517 -62 -641 -179 -63
-60 -134 -171 -134 -211 0 -28 34 -67 59 -67 9 0 97 -9 196 -20 99 -11 189
-20 200 -20 11 -1 -14 -10 -55 -21 -164 -42 -293 -136 -352 -257 -30 -61 -33
-74 -33 -162 0 -86 3 -101 32 -163 40 -85 118 -164 204 -207 155 -79 433 -92
631 -30 58 18 60 18 79 -1 18 -18 38 -19 429 -19 385 0 411 1 428 18 18 18 19
18 42 0 21 -17 52 -18 517 -18 303 0 501 4 513 10 32 17 40 67 40 247 0 172
-9 229 -39 247 -6 4 -38 8 -71 10 -33 2 -63 5 -66 8 -11 11 24 75 55 101 52
43 121 59 264 62 152 2 167 9 167 80 0 33 4 45 15 45 13 0 15 -26 15 -172 0
-315 28 -423 133 -525 107 -103 211 -138 402 -138 144 1 257 24 370 74 99 45
95 33 95 264 0 219 -4 238 -54 251 -15 4 -45 -2 -76 -14 -28 -11 -63 -20 -79
-20 -28 0 -28 1 -35 77 -3 42 -6 105 -6 140 l0 63 105 0 c152 0 145 -13 145
250 0 211 0 211 -25 235 -22 23 -31 25 -125 25 l-101 0 1 213 c1 116 -1 219
-5 228 -4 10 2 19 17 26 13 6 51 25 85 41 34 17 74 40 89 51 15 12 33 21 41
21 8 0 28 11 45 25 16 14 36 25 45 25 8 0 28 11 45 25 16 14 38 25 49 25 11 0
22 6 25 14 3 8 20 20 37 27 18 7 53 27 78 46 26 18 50 33 54 33 5 0 23 11 41
25 18 14 37 25 42 25 5 0 17 9 27 20 10 11 27 22 39 26 11 3 35 17 53 30 17
13 36 24 41 24 5 0 16 7 23 17 8 9 29 22 47 30 17 7 32 17 32 22 0 5 17 16 38
24 20 8 46 24 56 36 11 12 24 21 31 21 6 0 22 11 35 25 13 14 29 25 35 25 6 0
30 16 52 35 23 19 45 35 49 35 4 0 18 10 30 21 13 12 32 27 43 33 28 16 185
134 244 184 29 24 63 50 77 57 14 7 32 23 40 34 8 12 18 21 23 21 11 0 136
102 302 248 11 9 49 42 85 72 36 30 77 66 91 80 14 14 88 84 165 155 390 366
786 802 1069 1175 39 51 88 116 111 144 43 54 120 163 194 275 25 37 63 94 85
126 59 86 74 108 82 125 4 8 21 35 37 60 17 24 38 58 47 75 26 50 64 118 87
155 11 19 43 78 69 130 l48 95 3 183 3 182 1103 0 c844 0 1105 3 1114 12 17
17 15 73 -3 88 -8 7 -15 16 -15 21 0 5 -9 28 -19 52 -11 23 -27 65 -36 92 -10
28 -28 73 -41 101 -13 28 -24 55 -24 61 0 5 -11 33 -25 61 -14 29 -25 56 -25
62 0 5 -11 34 -25 64 -14 30 -25 59 -25 63 0 5 -11 33 -25 61 -14 29 -25 58
-25 65 0 7 -4 17 -9 23 -4 5 -16 32 -26 59 -10 28 -28 73 -41 101 -13 28 -24
56 -24 62 0 5 -8 27 -19 49 -10 21 -27 58 -36 83 -10 25 -28 69 -41 98 -13 29
-24 58 -24 65 0 7 -4 17 -9 22 -4 6 -16 35 -26 65 -10 30 -28 78 -41 105 -55
121 -74 166 -74 175 0 6 -4 18 -9 28 -21 39 -41 91 -41 106 0 8 -9 31 -20 51
-11 20 -20 40 -20 46 0 10 -17 52 -43 107 -12 26 -4 57 48 167 18 39 36 83 40
99 3 16 15 48 26 70 10 22 19 46 19 53 0 7 11 34 23 61 51 103 75 158 82 186
3 16 15 48 26 70 10 22 19 43 19 48 0 4 11 31 24 60 13 29 31 73 41 98 9 25
26 62 36 83 11 22 19 43 19 48 0 5 11 32 25 61 14 28 25 57 25 63 0 6 11 34
25 61 14 27 25 55 25 62 0 8 6 26 14 40 19 38 34 73 42 102 4 14 15 37 25 52
11 14 19 33 19 42 0 8 7 32 16 53 18 41 25 59 45 113 7 19 18 42 26 51 7 8 13
23 13 32 0 10 4 25 9 35 9 19 32 71 51 117 6 17 20 47 31 67 21 42 25 98 7
116 -9 9 -272 12 -1120 12 l-1108 0 0 698 c0 664 -1 700 -18 715 -17 15 -78
17 -665 17 l-647 0 0 403 c0 379 -1 405 -18 420 -10 10 -26 17 -35 17 -9 0
-19 5 -22 10 -3 6 -19 10 -35 10 -16 0 -31 4 -34 9 -3 5 -26 12 -51 15 -24 4
-47 11 -50 17 -4 5 -17 9 -30 9 -13 0 -26 4 -29 9 -3 4 -24 11 -47 15 -23 4
-54 15 -68 25 -14 10 -47 21 -73 24 -26 4 -56 11 -65 16 -39 20 -70 30 -108
36 -22 4 -55 15 -73 26 -18 10 -42 19 -52 19 -22 0 -106 26 -132 40 -10 6 -24
10 -33 10 -18 0 -104 27 -127 40 -10 6 -26 10 -35 10 -20 0 -108 32 -119 43
-4 4 -17 7 -29 7 -22 0 -121 32 -132 43 -3 4 -18 7 -33 7 -14 0 -30 4 -36 9
-5 5 -36 16 -69 26 -33 10 -64 21 -70 25 -5 4 -31 11 -57 14 -26 4 -50 11 -53
17 -4 5 -17 9 -30 9 -13 0 -26 4 -29 9 -3 5 -25 12 -49 15 -23 4 -56 15 -72
25 -17 10 -49 21 -73 25 -24 3 -62 15 -85 25 -23 11 -64 22 -91 26 -27 4 -57
11 -67 16 -11 5 -28 14 -39 19 -11 6 -29 10 -40 10 -11 0 -28 4 -38 10 -37 20
-89 39 -126 45 -38 6 -48 10 -93 33 -13 7 -30 12 -38 12 -17 0 -104 25 -140
40 -11 5 -47 16 -80 26 -33 9 -64 21 -70 26 -5 4 -19 8 -31 8 -13 0 -25 4 -28
9 -3 5 -27 12 -52 16 -26 4 -55 11 -65 16 -11 5 -28 14 -39 19 -11 6 -29 10
-40 10 -17 0 -62 16 -110 40 -9 4 -36 11 -60 15 -24 4 -52 11 -62 16 -10 5
-27 14 -38 19 -11 6 -29 10 -41 10 -11 0 -37 7 -57 16 -57 25 -73 30 -125 43
-56 13 -176 13 -232 -1z m204 -477 c47 -16 154 -50 236 -76 170 -53 310 -98
470 -151 61 -20 135 -42 165 -50 30 -8 91 -28 135 -44 44 -15 127 -42 185 -60
58 -17 157 -48 220 -69 63 -21 142 -46 175 -56 33 -10 69 -21 80 -25 11 -4 67
-22 125 -40 58 -18 113 -36 122 -41 10 -5 27 -9 37 -9 11 0 23 -4 26 -10 3 -5
15 -10 25 -10 11 0 99 -26 197 -59 98 -32 205 -66 238 -76 33 -9 69 -21 80
-26 11 -4 40 -13 65 -20 25 -6 54 -15 65 -19 41 -16 202 -68 250 -80 28 -7 59
-18 70 -25 11 -7 38 -15 60 -19 22 -4 45 -11 50 -16 6 -4 34 -13 63 -21 l52
-13 0 -467 0 -467 23 -6 c12 -3 311 -6 665 -6 l642 0 0 -2695 0 -2694 -26 -48
c-15 -26 -34 -61 -44 -78 -10 -16 -29 -50 -42 -75 -44 -79 -192 -315 -200
-318 -4 -2 -8 -8 -8 -13 0 -18 -293 -432 -310 -437 -6 -2 -10 -8 -10 -13 0
-11 -208 -275 -299 -379 -99 -113 -101 -116 -217 -245 -149 -166 -631 -645
-649 -645 -4 0 -16 -11 -26 -24 -57 -72 -763 -646 -796 -646 -5 0 -16 -8 -25
-17 -9 -10 -31 -28 -50 -41 -18 -13 -60 -43 -93 -68 -33 -24 -64 -44 -68 -44
-4 0 -17 -8 -28 -18 -10 -11 -32 -25 -47 -33 -15 -8 -33 -20 -41 -27 -21 -20
-120 -82 -131 -82 -6 0 -10 -4 -10 -8 0 -12 -400 -254 -535 -325 -33 -17 -71
-39 -85 -48 -31 -21 -467 -241 -570 -288 -41 -19 -115 -53 -165 -76 -140 -66
-113 -66 -280 10 -27 13 -90 42 -140 65 -119 54 -523 258 -555 279 -14 9 -41
24 -60 34 -19 9 -53 28 -75 40 -22 13 -89 52 -150 87 -60 35 -123 72 -140 84
-16 12 -46 29 -65 40 -57 31 -415 267 -418 277 -2 5 -8 9 -14 9 -6 0 -33 17
-62 37 -111 81 -361 267 -366 272 -3 4 -29 24 -57 46 -29 21 -53 43 -53 47 0
4 -5 8 -11 8 -11 0 -94 67 -138 111 -14 14 -33 28 -41 31 -15 7 -159 133 -350
306 -196 179 -615 607 -716 732 -25 31 -60 72 -123 145 -10 11 -49 58 -86 105
-38 47 -81 98 -97 115 -15 16 -28 35 -28 42 0 6 -3 13 -8 15 -4 2 -26 28 -49
58 -24 30 -48 61 -55 69 -27 32 -218 304 -218 311 0 4 -10 18 -21 31 -19 21
-85 121 -114 171 -5 9 -40 66 -76 125 -37 59 -90 153 -118 208 l-51 99 0 2688
0 2688 643 0 c353 0 652 3 665 6 l22 6 0 467 0 466 93 29 c50 16 128 40 172
53 44 14 89 28 100 33 18 7 97 32 365 116 41 13 158 51 259 84 101 33 192 60
201 60 9 0 20 4 26 8 5 5 29 14 54 22 83 24 175 53 195 60 48 19 84 30 145 45
36 9 74 21 85 26 24 10 114 39 215 69 41 12 84 26 95 30 11 5 38 14 60 20 22
6 49 15 60 19 34 14 176 59 285 91 58 17 121 38 140 45 19 8 89 30 155 50 66
20 145 45 175 55 30 10 116 37 190 60 74 23 149 48 165 56 38 17 24 19 124
-15z m-5109 -3401 c0 -5 -3 -10 -7 -10 -5 0 -7 -112 -5 -250 l3 -250 -456 0
-455 0 0 -30 c0 -17 4 -38 9 -48 14 -27 95 -225 146 -357 26 -66 55 -139 66
-162 10 -24 19 -47 19 -53 0 -6 4 -18 9 -28 14 -24 82 -187 131 -313 l42 -106
-56 -142 c-31 -78 -65 -161 -76 -184 -10 -23 -44 -105 -74 -182 -30 -77 -61
-153 -70 -170 -9 -16 -16 -34 -16 -38 0 -5 -11 -32 -24 -60 -13 -29 -41 -97
-62 -152 -21 -55 -42 -101 -46 -103 -4 -2 -8 -21 -8 -43 l0 -39 463 0 462 0
-3 -257 c-2 -142 -4 -259 -6 -260 -1 -2 -363 -2 -804 -1 l-801 3 40 95 c22 52
47 113 55 135 8 22 21 54 28 70 8 17 24 55 35 85 12 30 26 65 31 78 6 12 14
32 20 45 5 12 19 47 30 77 21 57 24 63 60 144 12 27 30 72 41 100 11 28 24 60
29 71 5 11 20 49 34 85 28 72 101 252 116 288 6 12 14 32 19 45 6 12 19 42 29
67 11 25 32 80 47 123 15 43 32 80 36 83 14 8 10 67 -5 89 -8 11 -21 44 -30
74 -9 29 -20 59 -24 65 -5 6 -48 110 -96 231 -49 121 -94 234 -102 252 -8 17
-14 36 -14 41 0 6 -16 46 -36 89 -19 43 -47 107 -61 143 -13 36 -33 84 -43
106 -11 23 -28 68 -39 100 -11 33 -29 78 -40 101 -12 23 -21 47 -21 53 0 5 -4
18 -10 28 -5 9 -30 69 -55 132 -25 63 -50 123 -55 133 -10 16 31 17 795 17
530 0 805 -3 805 -10z m11644 -56 c-13 -36 -58 -147 -99 -245 -41 -99 -75
-182 -75 -184 0 -3 -8 -24 -18 -48 -11 -23 -34 -78 -51 -122 -18 -44 -37 -89
-41 -100 -25 -59 -65 -159 -130 -320 -40 -99 -83 -203 -96 -230 -12 -28 -26
-63 -29 -78 -4 -15 -11 -30 -16 -33 -5 -3 -9 -12 -9 -20 0 -8 -9 -36 -21 -62
-11 -26 -27 -62 -35 -80 -16 -38 -18 -74 -5 -88 5 -5 58 -130 116 -279 59
-148 113 -283 120 -300 8 -16 30 -73 50 -125 20 -52 45 -113 56 -136 10 -22
19 -44 19 -48 0 -4 11 -32 25 -62 14 -30 25 -58 25 -62 0 -5 9 -27 20 -50 11
-22 20 -46 20 -51 0 -6 16 -45 35 -87 19 -41 35 -81 35 -88 0 -6 4 -16 8 -22
5 -5 24 -47 42 -94 18 -47 41 -104 51 -127 11 -24 19 -44 19 -45 0 -2 -360 -2
-800 0 l-800 2 0 244 c0 135 -3 251 -6 260 -6 14 38 16 453 16 253 0 462 2
465 5 9 10 -9 78 -40 150 -17 39 -45 106 -62 150 -18 44 -43 105 -56 135 -13
30 -25 62 -26 70 -2 8 -6 17 -9 20 -3 3 -20 43 -38 90 -18 47 -37 94 -42 105
-4 11 -40 100 -79 197 l-71 178 30 74 c16 41 38 94 49 118 11 23 41 97 67 163
26 66 53 134 60 150 7 17 20 50 30 75 9 25 23 59 30 75 51 110 158 386 162
418 l5 37 -461 0 -460 0 -3 260 -3 260 807 0 807 0 -25 -66z m-5804 -8329 l0
-234 123 -3 122 -3 0 -180 0 -180 -120 -2 -120 -1 -3 -144 c-3 -150 8 -230 35
-260 20 -22 100 -24 158 -3 22 8 43 15 48 15 4 0 7 -78 7 -174 l0 -174 -53
-25 c-145 -68 -394 -94 -517 -53 -185 63 -262 161 -280 357 -5 57 -9 185 -10
284 l0 180 -72 0 -73 0 0 180 0 180 73 0 72 0 0 93 0 92 123 59 c67 32 201 97
297 144 96 47 178 86 183 86 4 1 7 -105 7 -234z m-2765 -220 c171 -28 272 -71
339 -145 82 -91 96 -156 96 -457 l0 -223 75 0 75 0 0 -185 0 -185 -377 2 -378
3 -3 38 c-2 21 -6 37 -10 35 -122 -65 -245 -91 -422 -91 -190 0 -280 29 -384
124 -102 93 -135 204 -97 328 18 60 31 80 76 126 58 57 167 120 192 111 8 -3
11 -1 8 4 -3 5 7 12 22 16 15 3 46 11 68 17 22 5 108 10 190 10 153 0 265 -16
326 -47 29 -14 29 -14 30 17 4 127 -10 180 -57 223 -43 39 -93 54 -183 54 -83
0 -128 -19 -192 -78 l-40 -38 -82 8 c-45 4 -143 15 -218 23 -75 8 -144 15
-153 15 -47 0 101 174 190 222 69 37 227 76 354 87 137 12 439 4 555 -14z
m1983 -247 l2 -258 -82 0 c-121 0 -201 -15 -273 -49 -51 -23 -71 -39 -94 -76
-29 -45 -58 -165 -46 -185 4 -6 44 -10 91 -10 l84 0 0 -185 0 -185 -472 2
-473 3 -3 183 -2 182 82 0 83 0 -2 212 c-1 117 -3 218 -3 223 0 6 -31 9 -80 7
l-80 -4 2 184 3 183 362 3 362 2 3 -147 3 -148 24 45 c41 79 118 163 195 216
45 30 100 46 191 54 135 12 120 44 123 -252z m-2317 -59 c47 -15 75 -43 84
-88 l7 -34 -38 8 c-90 17 -163 25 -233 25 l-75 0 35 36 c18 20 48 42 64 50 37
16 105 18 156 3z"/>
<path d="M9780 17520 c-25 -9 -52 -19 -60 -22 -31 -12 -457 -147 -515 -163
-33 -9 -69 -21 -80 -25 -11 -5 -81 -28 -155 -51 -74 -23 -144 -45 -155 -49
-32 -13 -165 -57 -230 -75 -33 -10 -93 -28 -133 -41 -40 -13 -79 -24 -87 -24
-9 0 -23 -4 -33 -9 -17 -10 -122 -47 -192 -69 -19 -6 -52 -14 -73 -18 -20 -3
-40 -10 -43 -15 -3 -5 -15 -9 -28 -9 -12 0 -26 -4 -32 -9 -5 -5 -56 -23 -114
-41 -58 -17 -112 -34 -120 -37 -8 -3 -24 -7 -35 -9 -11 -2 -54 -15 -95 -29
-41 -14 -81 -25 -90 -25 -9 0 -20 -4 -26 -9 -5 -4 -70 -27 -144 -50 -74 -23
-143 -46 -152 -51 -10 -6 -23 -10 -30 -10 -16 0 -266 -79 -290 -91 -10 -5 -26
-9 -37 -9 -10 0 -22 -7 -25 -16 -3 -9 -6 -236 -6 -505 l0 -489 -653 0 c-495 0
-656 -3 -665 -12 -9 -9 -12 -591 -12 -2559 l0 -2546 21 -44 c22 -47 27 -55
129 -226 36 -59 67 -112 69 -117 2 -5 12 -17 23 -28 10 -10 23 -29 29 -41 5
-12 32 -53 59 -92 28 -38 71 -100 95 -136 25 -37 74 -104 109 -150 36 -46 62
-88 59 -94 -4 -5 -3 -7 2 -3 4 4 24 -14 43 -40 20 -26 49 -63 66 -82 17 -20
42 -51 56 -70 27 -37 270 -321 330 -385 133 -144 209 -223 316 -329 175 -176
354 -347 354 -339 0 4 17 -9 38 -30 57 -56 334 -293 437 -373 22 -17 85 -66
140 -108 55 -43 107 -83 116 -90 9 -7 45 -33 80 -56 35 -24 98 -69 139 -99 41
-31 93 -68 115 -82 173 -113 250 -165 253 -171 2 -5 7 -8 11 -8 11 0 423 -246
444 -265 10 -9 21 -14 24 -11 4 3 11 2 17 -3 14 -11 88 -51 241 -131 66 -35
127 -67 135 -71 8 -5 65 -32 125 -60 61 -28 153 -72 205 -97 52 -24 101 -44
108 -43 6 1 21 2 31 3 11 1 18 5 15 9 -2 4 5 11 17 14 21 7 236 107 274 127
11 6 90 46 175 89 85 43 178 91 205 107 28 15 84 47 125 69 70 38 350 205 450
268 88 55 125 80 130 85 3 3 30 21 60 40 46 29 149 100 284 195 15 11 65 47
109 80 45 33 92 67 103 75 12 8 46 35 75 59 30 24 69 55 88 70 72 55 143 114
178 146 20 19 41 31 45 29 5 -3 7 -1 6 4 -2 5 22 29 52 53 30 23 60 48 65 54
6 6 41 38 79 71 249 212 657 628 891 907 58 70 110 127 116 127 5 0 9 6 9 14
0 7 7 20 17 27 9 8 34 38 56 68 22 29 47 61 56 71 9 9 21 24 26 32 11 18 121
164 161 215 62 79 295 428 356 533 54 94 56 96 95 160 l28 45 3 2559 c1 1888
-1 2562 -9 2572 -9 12 -126 14 -666 14 l-654 0 1 491 c1 395 -1 494 -12 504
-7 6 -74 31 -148 54 -74 23 -143 47 -152 52 -10 5 -27 9 -37 9 -11 0 -22 4
-25 9 -3 5 -18 11 -33 14 -46 8 -61 13 -238 71 -93 31 -177 56 -187 56 -9 0
-20 5 -23 10 -3 6 -17 10 -30 10 -13 0 -27 5 -30 10 -3 6 -14 10 -23 10 -19 0
-259 75 -282 89 -9 5 -35 12 -58 16 -23 4 -44 11 -48 16 -3 5 -18 9 -33 9 -15
0 -31 4 -37 8 -10 9 -17 11 -214 72 -74 23 -143 46 -152 51 -10 5 -24 9 -33 9
-14 0 -178 52 -220 70 -11 5 -36 13 -55 19 -39 11 -296 92 -545 172 -88 27
-173 56 -190 62 -16 6 -35 11 -42 9 -6 -1 -14 2 -18 8 -3 5 -17 10 -30 10 -13
0 -26 4 -29 9 -4 5 -24 12 -46 16 -22 4 -42 11 -46 16 -8 14 -63 8 -114 -11z
m124 -170 c17 -5 101 -32 186 -59 85 -27 229 -73 320 -102 245 -77 369 -116
525 -166 177 -56 241 -77 285 -90 104 -32 430 -136 460 -147 19 -8 76 -26 125
-41 121 -37 331 -104 625 -199 41 -13 128 -41 193 -62 l117 -37 0 -505 c0
-456 2 -507 17 -524 15 -17 49 -18 665 -18 l648 0 0 -2460 0 -2461 -21 -42
c-33 -64 -165 -281 -233 -382 -319 -475 -675 -905 -1112 -1341 -198 -197 -519
-491 -637 -582 -19 -15 -88 -71 -154 -124 -208 -168 -525 -396 -763 -548 -384
-247 -797 -474 -1219 -672 l-75 -35 -68 34 c-38 18 -70 33 -73 33 -15 0 -478
237 -598 306 -32 19 -60 34 -62 34 -13 0 -392 234 -575 355 -471 312 -900 650
-1280 1010 -601 570 -1137 1226 -1479 1810 l-81 139 0 2463 0 2463 646 0 c426
0 652 4 665 10 18 10 19 27 19 524 l0 513 88 27 c48 15 119 38 157 51 39 13
113 37 165 53 52 16 158 50 235 75 131 42 191 61 440 139 55 17 109 35 120 39
21 9 196 64 390 125 66 20 172 54 235 74 63 21 176 57 250 80 74 23 144 45
155 50 11 4 40 13 65 20 25 7 77 23 115 36 39 12 142 45 230 73 88 28 171 55
185 60 35 12 68 13 104 1z"/>
<path d="M9860 16783 c-6 -10 -51 -100 -100 -200 l-89 -182 -38 -6 c-21 -3
-68 -10 -105 -15 -38 -6 -96 -15 -130 -20 -35 -5 -87 -12 -115 -16 -41 -4 -53
-10 -52 -22 1 -10 68 -80 149 -157 81 -77 151 -148 154 -157 4 -10 3 -33 -3
-50 -10 -34 -51 -281 -59 -355 -2 -26 0 -43 6 -43 6 0 59 26 119 58 263 141
276 147 309 131 16 -9 88 -46 159 -84 72 -37 146 -77 165 -87 47 -24 61 -23
56 5 -3 12 -17 92 -31 177 -14 85 -30 175 -36 200 l-10 45 155 153 c86 84 156
159 156 166 0 10 -18 16 -52 20 -73 9 -183 25 -243 36 -27 5 -72 11 -98 15
l-48 6 -94 194 c-53 107 -100 197 -105 200 -5 3 -14 -2 -20 -12z"/>
<path d="M7923 16052 c-6 -4 -39 -64 -73 -134 -33 -69 -66 -131 -73 -136 -7
-5 -59 -15 -117 -22 -175 -21 -193 -25 -198 -38 -2 -6 46 -60 107 -118 77 -74
111 -114 111 -129 0 -13 -9 -67 -19 -121 -36 -185 -36 -184 -9 -184 13 0 28 4
34 9 5 5 62 37 126 70 l117 62 88 -45 c48 -25 109 -57 135 -72 59 -34 84 -27
73 19 -8 34 -15 76 -35 202 l-13 79 113 108 c73 70 111 112 107 121 -3 9 -24
17 -49 20 -239 26 -259 30 -276 56 -18 27 -107 214 -116 244 -6 18 -14 21 -33
9z"/>
<path d="M11794 16038 c-11 -36 -117 -252 -127 -259 -4 -3 -54 -11 -110 -18
-178 -21 -200 -26 -205 -39 -2 -7 46 -61 108 -119 l112 -107 -7 -60 c-4 -34
-14 -92 -21 -131 -29 -142 -28 -135 -8 -135 11 0 79 32 152 71 l132 71 135
-71 c74 -39 141 -71 150 -71 13 0 14 10 9 58 -3 31 -10 71 -14 87 -5 17 -14
63 -21 104 l-13 75 113 107 c73 69 112 113 108 122 -3 8 -28 17 -64 21 -32 4
-101 13 -153 19 l-95 12 -68 135 c-79 155 -97 176 -113 128z"/>
<path d="M9505 14934 c-212 -22 -291 -38 -515 -102 -431 -122 -784 -359 -1020
-685 -72 -98 -169 -272 -199 -357 -7 -19 -17 -44 -21 -55 -13 -31 -46 -144
-59 -200 -30 -136 -36 -211 -36 -450 1 -219 4 -264 24 -365 99 -499 378 -902
811 -1171 89 -55 286 -154 365 -182 56 -21 385 -129 815 -267 157 -51 305 -99
330 -107 371 -120 557 -237 635 -397 46 -92 59 -167 51 -286 -11 -175 -59
-291 -164 -396 -108 -109 -246 -164 -465 -186 -228 -22 -475 16 -647 101 -155
77 -259 177 -332 319 -72 140 -89 222 -95 457 -3 110 -8 203 -12 208 -7 7
-1461 11 -1468 3 -6 -6 -4 -1206 2 -1217 5 -6 74 -10 198 -9 106 1 197 1 204
1 7 -1 33 -42 58 -93 56 -111 101 -181 169 -268 241 -309 607 -549 1031 -678
96 -29 349 -79 470 -92 127 -14 491 -14 615 0 428 47 778 167 1100 375 286
185 513 441 665 750 50 102 118 284 135 365 24 110 32 156 46 260 35 284 6
613 -77 865 -36 108 -132 308 -188 393 -175 262 -446 480 -751 602 -79 32
-1309 443 -1405 470 -235 65 -368 122 -465 199 -120 96 -164 171 -188 316 -14
87 -14 104 1 186 25 142 77 233 180 313 117 91 283 141 502 152 189 10 363
-28 540 -117 102 -52 154 -91 236 -176 77 -80 130 -166 167 -272 24 -70 27
-93 32 -276 l5 -200 735 0 735 0 0 615 0 615 -203 5 -204 5 -25 45 c-87 156
-151 240 -292 380 -303 302 -700 493 -1226 589 -178 33 -570 40 -800 15z"/>
<path d="M6585 12168 c-16 -6 -39 -17 -49 -24 -14 -10 -23 -10 -33 -3 -22 19
-41 2 -46 -43 -2 -24 -12 -61 -20 -83 -21 -53 -21 -169 0 -230 22 -67 93 -137
156 -154 80 -23 180 3 234 61 72 77 91 242 41 349 -50 108 -176 165 -283 127z
m177 -51 c20 -11 35 -24 32 -29 -3 -4 -1 -8 5 -8 13 0 40 -40 48 -71 12 -47
14 -175 3 -212 -13 -43 -61 -102 -99 -121 -71 -36 -166 -25 -222 25 -18 16
-29 29 -24 29 5 0 2 6 -7 13 -30 22 -51 112 -45 186 5 67 23 121 39 121 4 0 8
6 8 13 0 7 9 20 20 30 11 9 20 14 20 10 0 -4 6 1 13 9 31 41 141 44 209 5z"/>
<path d="M6618 12028 c-14 -26 -18 -196 -5 -240 9 -35 51 -48 75 -24 14 14 17
37 17 129 -1 150 -2 153 -41 155 -25 2 -36 -3 -46 -20z m58 -54 c7 -51 1 -181
-10 -192 -16 -16 -26 30 -26 124 0 55 3 104 7 107 14 15 22 5 29 -39z"/>
<path d="M12575 12167 c-61 -21 -85 -38 -107 -81 -19 -38 -28 -99 -16 -111 3
-4 39 -9 80 -12 78 -6 92 0 100 42 5 27 38 33 38 6 0 -11 -17 -34 -41 -53
-145 -115 -189 -179 -189 -274 0 -38 4 -53 16 -58 26 -10 398 -7 414 4 20 12
28 163 10 185 -8 10 -32 15 -69 16 -48 0 -53 2 -36 12 139 84 145 241 12 309
-52 26 -156 33 -212 15z m129 -26 c3 -5 14 -7 24 -5 23 6 97 -43 111 -73 16
-36 13 -91 -6 -125 -17 -28 -65 -62 -147 -103 -45 -22 -86 -54 -86 -67 0 -4
36 -8 80 -8 64 0 80 3 80 15 0 8 1 15 3 16 1 0 23 3 48 5 44 5 46 4 44 -18 -1
-12 -3 -47 -4 -76 l-1 -52 -187 2 -188 3 1 46 c1 25 9 60 18 77 22 43 85 104
98 96 6 -4 8 -3 5 3 -3 5 16 27 43 47 28 21 50 42 50 48 0 5 4 7 8 4 10 -6 9
55 -1 72 -10 15 -69 16 -85 0 -7 -7 -12 -22 -12 -35 0 -19 -5 -23 -29 -23 -56
0 -91 12 -91 31 0 27 37 84 62 97 54 27 151 41 162 23z m34 -331 c-8 -12 -23
-20 -38 -20 -23 1 -23 2 10 20 19 11 36 19 38 20 1 0 -3 -9 -10 -20z"/>
<path d="M13119 12155 c-19 -14 -53 -28 -75 -32 -57 -9 -64 -18 -64 -87 0 -67
11 -86 47 -86 22 0 23 -3 23 -79 l0 -80 -32 -3 c-33 -3 -33 -3 -36 -63 -6
-111 -15 -105 162 -105 85 0 161 3 170 6 13 5 16 22 16 80 0 77 -3 82 -47 88
-17 3 -18 17 -21 186 -2 132 -6 186 -15 192 -27 17 -92 8 -128 -17z m109 -202
l2 -193 35 0 35 0 0 -55 0 -55 -145 0 -145 0 0 55 0 55 34 0 35 0 3 105 c2 58
2 109 0 113 -1 4 -18 7 -37 6 l-35 -2 0 53 0 53 38 5 c71 10 77 12 96 35 13
17 27 22 50 20 l31 -3 3 -192z"/>
<path d="M6942 12161 c-14 -9 -35 -243 -25 -281 4 -13 22 -25 59 -37 30 -9 52
-18 50 -20 -1 -2 -29 -6 -62 -9 -65 -7 -77 -16 -68 -54 17 -72 103 -129 208
-137 154 -13 266 72 266 201 0 44 -37 112 -73 135 -30 19 -30 21 -9 21 52 0
62 15 62 90 0 102 4 100 -213 100 -100 0 -188 -4 -195 -9z m370 -48 c2 -16 1
-45 -1 -65 -3 -36 -5 -38 -37 -38 -22 0 -37 6 -40 15 -5 12 -26 15 -100 15
l-94 0 0 -50 c0 -27 2 -50 4 -50 2 0 20 7 39 15 105 44 235 -16 252 -116 10
-58 -22 -120 -78 -153 -86 -51 -227 -39 -292 24 -56 54 -53 67 18 73 53 5 63
3 75 -14 17 -24 83 -26 106 -3 25 24 21 81 -6 95 -26 14 -71 13 -99 -2 -13 -7
-19 -6 -19 1 0 6 -4 9 -9 5 -5 -3 -27 2 -48 10 l-38 15 7 88 c3 48 7 104 7
125 l1 37 174 0 175 0 3 -27z m-117 -108 c-25 -8 -115 -11 -115 -4 0 5 28 9
63 8 34 0 58 -2 52 -4z m-50 -195 c0 -34 -43 -40 -70 -10 -16 18 -17 23 -5 31
8 5 29 8 45 7 25 -3 30 -7 30 -28z"/>
<path d="M6148 11964 c-29 -15 -58 -61 -58 -90 0 -9 15 -31 34 -50 26 -26 42
-34 70 -34 44 0 93 41 102 86 5 25 0 37 -29 67 -38 41 -72 47 -119 21z"/>
<path d="M13474 11946 c-44 -44 -46 -86 -5 -127 42 -42 92 -40 137 5 22 22 34
44 34 61 0 39 -59 95 -100 95 -23 0 -41 -9 -66 -34z"/>
<path d="M6467 11673 c-2 -4 -7 -25 -11 -46 -8 -42 12 -60 40 -36 21 17 15 83
-8 87 -9 2 -18 -1 -21 -5z"/>
<path d="M7458 5080 c-56 -31 -81 -79 -76 -149 7 -101 66 -150 179 -151 51 0
77 6 117 26 l52 26 0 114 0 115 -37 16 c-21 9 -74 18 -118 20 -66 3 -87 0
-117 -17z m191 -64 c6 -4 11 -35 11 -71 0 -61 -1 -65 -30 -80 -16 -8 -50 -15
-75 -15 -38 0 -52 5 -76 29 -40 40 -39 82 2 123 29 29 33 30 94 26 34 -3 68
-9 74 -12z"/>
<path d="M2663 6314 c-210 -46 -367 -180 -424 -364 -29 -92 -35 -227 -15 -314
47 -197 178 -339 424 -457 48 -23 133 -63 189 -90 55 -27 115 -60 132 -75 53
-45 36 -84 -36 -84 -83 0 -148 54 -184 153 -22 62 -41 67 -263 67 -214 0 -239
-5 -256 -53 -14 -41 -13 -534 1 -576 6 -17 19 -36 29 -41 11 -6 111 -10 229
-10 198 0 212 1 231 20 11 11 20 24 20 30 0 5 21 0 48 -11 71 -31 208 -59 290
-59 178 0 347 65 461 179 83 83 125 154 151 255 48 189 1 387 -129 543 -55 65
-146 130 -291 204 l-85 44 213 5 c197 5 215 7 228 24 11 16 14 73 14 292 l0
273 -26 20 c-25 20 -39 21 -235 21 -204 0 -208 0 -235 -23 l-27 -24 -50 19
c-124 47 -280 60 -404 32z m233 -64 c87 -11 168 -41 235 -86 28 -19 53 -34 55
-34 2 0 4 25 4 55 l0 55 190 0 190 0 -2 -242 -3 -243 -182 -3 -182 -2 -30 59
c-51 100 -118 141 -233 141 -73 0 -107 -25 -115 -88 -11 -80 2 -91 287 -232
222 -111 299 -158 370 -230 161 -161 203 -401 104 -590 -65 -124 -197 -228
-338 -266 -165 -44 -370 -15 -511 74 -27 17 -53 28 -57 26 -4 -3 -8 -27 -8
-55 l0 -49 -185 0 -185 0 0 270 0 270 187 -2 187 -3 16 -42 c21 -59 84 -131
134 -154 52 -23 155 -25 197 -4 73 38 63 151 -17 207 -16 11 -114 61 -219 112
-104 51 -217 110 -249 131 -233 150 -316 423 -201 663 19 39 40 72 47 72 6 0
9 3 5 6 -9 10 99 102 150 127 116 58 222 75 359 57z m111 -381 c43 -16 82 -58
112 -120 l26 -56 -120 63 c-66 34 -124 69 -129 77 -24 38 46 61 111 36z"/>
<path d="M11060 6297 c-51 -26 -52 -35 -46 -412 3 -192 6 -360 6 -372 0 -13 9
-32 20 -43 19 -19 33 -20 205 -20 238 0 225 -10 225 175 l0 135 30 0 30 0 0
-369 0 -368 -52 -6 c-91 -11 -93 -14 -96 -254 -3 -224 -1 -244 28 -273 19 -19
35 -20 520 -20 482 0 501 1 519 19 29 29 33 67 29 284 -4 229 -5 233 -96 244
l-52 6 0 368 0 369 25 0 25 0 0 -130 c0 -126 1 -132 25 -155 24 -25 27 -25
199 -25 96 0 182 3 191 6 42 16 45 45 45 424 0 389 -3 410 -52 424 -13 3 -401
6 -863 6 -654 0 -845 -3 -865 -13z m1708 -397 c1 -184 0 -345 -3 -357 -5 -23
-8 -23 -160 -23 l-155 0 0 158 0 157 -97 -2 -98 -2 0 -443 0 -443 73 -3 72 -3
0 -199 0 -200 -470 0 -470 0 0 200 0 200 70 0 70 0 0 445 0 445 -100 0 -100 0
0 -155 0 -155 -155 0 -155 0 0 360 0 360 838 -2 837 -3 3 -335z"/>
<path d="M16300 6303 c-49 -18 -50 -23 -50 -250 0 -200 1 -214 20 -233 15 -15
33 -20 75 -20 l55 0 0 -410 0 -410 -51 0 c-28 0 -59 -5 -70 -11 -16 -8 -25 -7
-39 6 -22 20 -491 128 -517 118 -28 -10 -53 -34 -53 -53 0 -9 -12 -40 -26 -68
-32 -64 -69 -86 -132 -79 -57 6 -91 32 -122 93 -21 41 -25 62 -24 134 0 70 5
94 25 135 31 60 78 95 130 95 74 0 122 -36 164 -126 14 -29 34 -58 45 -64 20
-11 407 -14 435 -4 40 16 45 52 45 313 0 265 -4 290 -47 310 -39 18 -397 15
-433 -4 -25 -13 -33 -13 -70 0 -223 79 -523 51 -725 -67 -264 -155 -387 -457
-310 -759 68 -267 322 -455 670 -498 317 -39 618 30 789 180 56 49 120 133
147 192 l19 42 0 -177 c0 -165 2 -180 20 -198 19 -19 33 -20 515 -20 482 0
496 1 515 20 19 19 20 33 20 233 0 256 2 250 -97 257 l-68 5 -2 137 -2 136 40
16 c43 18 96 21 118 7 19 -12 30 -185 30 -508 1 -249 2 -264 21 -283 19 -19
33 -20 420 -20 l401 0 24 25 c25 24 25 25 25 228 0 192 -1 206 -21 231 -17 22
-28 26 -69 26 l-48 0 -4 193 c-5 215 -20 301 -71 405 -116 239 -466 311 -793
162 -35 -16 -65 -26 -68 -22 -2 4 -4 128 -5 275 -1 148 -5 275 -7 282 -13 32
-54 35 -442 34 -213 0 -394 -3 -402 -6z m780 -393 c0 -287 2 -330 15 -330 8 0
15 4 15 9 0 14 187 106 260 129 185 56 382 28 505 -72 51 -42 101 -134 121
-223 10 -44 18 -146 21 -290 l6 -223 68 0 69 0 0 -185 0 -185 -374 0 -374 0
-4 358 c-4 389 -8 412 -62 448 -37 23 -144 15 -211 -17 l-50 -24 -3 -198 -2
-197 85 0 85 0 0 -185 0 -185 -465 0 -465 0 0 185 0 184 75 3 75 3 1 475 0
475 -75 3 -76 3 0 184 0 185 380 0 380 0 0 -330z m-1593 -171 c92 -12 201 -48
239 -78 24 -19 29 -20 36 -6 5 8 8 25 6 38 -3 22 -3 22 179 25 l182 2 3 -222
c2 -123 2 -235 0 -250 l-3 -28 -182 0 -182 0 -18 43 c-41 102 -120 157 -222
157 -140 0 -221 -98 -233 -281 -7 -114 31 -222 98 -277 52 -43 163 -56 226
-26 46 22 91 75 105 126 7 24 16 47 20 52 10 11 190 -24 183 -36 -3 -4 1 -5 9
-2 13 4 230 -41 248 -52 22 -13 -53 -145 -121 -212 -139 -136 -321 -195 -595
-195 -284 0 -473 64 -627 211 -111 105 -161 232 -160 402 0 242 108 414 335
534 37 20 75 37 85 39 9 1 22 5 27 9 10 6 105 25 160 31 63 8 126 7 202 -4z"/>
<path d="M13515 5815 c-196 -37 -318 -98 -441 -221 -64 -63 -90 -99 -123 -165
-72 -146 -90 -311 -51 -465 66 -261 257 -425 579 -496 80 -18 128 -22 286 -22
173 0 199 3 287 27 218 58 379 176 446 326 24 52 15 92 -23 109 -13 6 -139 25
-280 42 -281 34 -297 33 -323 -22 -49 -102 -187 -105 -233 -5 -37 84 -74 77
419 77 335 0 442 3 455 13 26 18 34 62 26 137 -37 342 -225 561 -557 647 -125
32 -345 40 -467 18z m315 -66 c175 -21 311 -75 427 -169 111 -90 193 -261 209
-438 l7 -72 -464 0 -464 0 1 -53 c2 -107 54 -199 127 -226 16 -6 53 -11 83
-11 71 0 126 28 159 80 19 31 32 40 53 40 28 0 465 -51 470 -55 9 -8 -42 -81
-97 -136 -140 -140 -375 -211 -644 -195 -191 12 -366 57 -453 116 -25 16 -48
30 -52 30 -9 0 -77 65 -117 111 -43 49 -62 81 -85 141 -60 164 -48 348 33 502
32 60 173 210 188 200 5 -3 9 0 9 6 0 6 12 16 28 22 15 7 34 17 42 24 28 23
195 73 275 82 114 13 169 13 265 1z"/>
<path d="M13630 5464 c-46 -39 -72 -99 -78 -176 l-5 -68 178 0 178 0 -5 68
c-10 130 -73 202 -180 202 -46 0 -62 -5 -88 -26z m144 -65 c26 -21 34 -34 50
-86 7 -23 7 -23 -98 -23 -66 0 -106 4 -106 10 0 21 29 79 49 99 27 27 71 27
105 0z"/>
<path d="M4995 5813 c-106 -23 -191 -50 -253 -79 -41 -18 -76 -34 -78 -34 -2
0 -4 9 -4 20 0 12 -11 32 -25 45 l-24 25 -399 0 c-389 0 -400 -1 -426 -21
l-26 -20 0 -215 c0 -201 1 -215 20 -234 15 -15 33 -20 75 -20 l55 0 0 -150 0
-150 -55 0 c-42 0 -60 -5 -75 -20 -19 -19 -20 -33 -20 -235 0 -202 1 -216 20
-235 19 -19 33 -20 510 -20 475 0 491 1 510 20 29 29 32 50 28 257 -4 231 -4
233 -105 233 l-63 0 0 130 0 130 38 16 c20 9 59 17 86 18 45 1 51 -1 57 -24 4
-14 7 -176 8 -361 1 -346 6 -390 41 -409 11 -6 181 -10 429 -10 394 0 412 1
430 19 29 29 33 68 29 270 -3 178 -4 183 -27 202 -17 14 -39 19 -82 19 l-59 0
0 130 0 129 31 17 c17 8 55 18 84 21 81 9 79 19 85 -405 l5 -364 24 -19 c22
-18 45 -19 432 -19 396 0 410 1 429 20 19 19 20 33 20 233 0 254 1 250 -92
257 l-63 5 -3 175 c-4 271 -37 402 -127 507 -173 202 -553 201 -850 -2 l-64
-44 -53 55 c-62 66 -135 105 -235 128 -67 15 -191 20 -238 9z m258 -88 c95
-29 183 -98 223 -177 9 -18 18 -34 19 -36 2 -2 36 22 76 52 194 145 385 205
564 176 165 -26 269 -112 321 -265 26 -76 28 -91 32 -322 l4 -243 79 0 79 0 0
-185 0 -185 -385 0 -385 0 0 330 c0 368 -5 416 -52 455 -43 37 -126 35 -212
-4 -35 -16 -66 -33 -69 -38 -3 -5 -7 -90 -7 -189 l-2 -179 81 -3 81 -3 0 -184
0 -185 -384 0 -384 0 -5 348 c-4 371 -9 406 -54 442 -43 33 -135 28 -215 -13
l-63 -33 -3 -187 -2 -187 80 0 80 0 0 -185 0 -185 -460 0 -460 0 0 185 0 185
75 0 75 0 0 220 0 220 -75 0 -75 0 0 185 0 185 380 0 379 0 3 -80 3 -80 50 36
c63 45 132 77 147 68 6 -4 8 -3 5 3 -8 13 96 52 183 69 75 15 204 10 273 -11z"/>
<path d="M10747 4139 c-84 -20 -159 -78 -173 -135 -11 -42 2 -124 23 -153 l21
-27 -40 -12 c-27 -9 -44 -9 -58 -2 -10 5 -39 10 -64 10 l-46 0 0 118 c0 107
-2 121 -20 137 -12 11 -34 18 -53 18 -18 -1 -117 -42 -222 -91 l-190 -90 -15
-45 c-12 -35 -21 -47 -47 -56 -17 -7 -35 -20 -38 -30 -5 -17 -8 -16 -35 10
l-29 30 -258 -5 c-142 -2 -265 -4 -273 -4 -8 0 -123 2 -255 4 -251 5 -274 4
-299 -22 -15 -14 -16 -1 -16 140 l0 155 -27 21 c-26 20 -35 21 -271 18 -304
-4 -282 10 -282 -184 0 -124 1 -135 22 -154 12 -11 30 -20 40 -20 17 0 18 -12
16 -216 -3 -206 -4 -217 -23 -224 -19 -7 -20 -3 -20 79 -1 75 -5 95 -32 154
-39 83 -109 152 -201 200 -104 54 -186 71 -337 72 -200 0 -319 -40 -429 -144
-55 -53 -116 -150 -116 -186 0 -22 -18 -19 -25 5 -12 37 -85 119 -137 155
l-53 35 67 0 c36 0 74 3 83 6 35 14 45 58 45 202 0 154 -9 194 -46 211 -32 14
-258 15 -285 0 -15 -8 -37 -6 -83 5 -164 42 -322 -3 -425 -121 -47 -52 -70
-114 -78 -204 -10 -120 48 -250 145 -325 l45 -34 -67 0 c-58 0 -70 -3 -91 -25
-25 -24 -25 -26 -25 -215 0 -245 -11 -230 178 -230 102 0 143 4 157 14 16 12
25 11 60 -2 64 -25 236 -22 305 6 108 43 204 142 228 236 l8 30 31 -55 c38
-68 121 -145 194 -181 166 -81 414 -89 602 -18 75 28 171 102 214 164 l33 48
0 -92 c0 -87 9 -126 34 -142 6 -4 136 -8 289 -8 l278 0 24 25 c24 23 25 30 25
147 0 132 -9 166 -48 183 -20 9 -22 16 -22 92 l0 83 20 -20 c11 -11 29 -20 40
-20 18 0 20 -7 20 -87 1 -212 57 -322 197 -386 68 -31 221 -31 310 1 l63 22
20 -20 c19 -19 33 -20 269 -20 319 0 296 -14 296 178 0 124 -2 142 -19 161
-11 12 -30 21 -43 21 -23 0 -23 2 -23 98 1 93 1 96 15 64 10 -23 23 -34 45
-38 28 -6 30 -9 30 -53 1 -94 12 -198 26 -248 33 -120 165 -203 320 -203 65 0
183 24 239 49 l41 18 21 -23 21 -24 272 0 c158 0 279 4 290 10 27 14 40 63 40
148 l0 75 28 -39 c73 -100 183 -165 327 -195 153 -32 310 -21 448 31 75 28
172 102 213 162 l32 47 4 -100 c5 -153 -60 -139 622 -139 459 1 577 3 591 14
15 11 21 10 37 -6 19 -19 68 -20 343 -7 17 0 71 -2 120 -6 252 -20 419 100
419 300 -1 80 -16 124 -64 178 -18 20 -28 37 -22 37 25 0 42 69 42 169 0 110
-10 143 -47 160 -27 12 -247 14 -277 2 -11 -4 -45 -2 -75 6 -113 26 -236 13
-337 -37 -100 -49 -144 -128 -144 -254 0 -71 23 -127 69 -171 l32 -29 -33 -16
c-31 -15 -35 -15 -57 2 -13 10 -29 18 -36 18 -8 0 -14 33 -19 108 -13 212 -55
295 -174 354 -63 31 -73 33 -172 33 -80 -1 -119 -6 -164 -22 -59 -21 -60 -21
-86 -2 -25 19 -41 20 -278 17 -305 -4 -285 6 -290 -139 l-4 -100 -36 52 c-141
201 -544 272 -810 143 -74 -36 -168 -126 -201 -193 -33 -67 -54 -167 -45 -216
5 -28 3 -35 -10 -35 -14 0 -16 25 -16 224 l0 225 -26 20 -26 20 20 28 c59 84
39 195 -44 252 -65 45 -184 62 -277 40z m210 -86 c41 -19 73 -66 73 -107 0
-89 -179 -144 -310 -94 -93 35 -107 138 -25 188 68 42 189 48 262 13z m-4402
-3 c7 -5 14 -7 17 -5 8 8 58 -16 58 -27 0 -5 4 -7 9 -3 5 3 12 1 16 -5 14 -22
32 -10 29 20 l-4 30 110 0 110 0 0 -145 0 -145 -109 0 -109 0 -12 29 c-27 67
-104 105 -175 87 -31 -8 -50 -45 -41 -80 5 -19 29 -36 114 -79 252 -129 299
-164 344 -256 19 -38 23 -63 23 -136 0 -80 -3 -95 -27 -136 -95 -161 -302
-212 -481 -119 -48 25 -59 28 -63 15 -4 -8 -4 -24 -1 -35 5 -19 0 -20 -109
-20 l-114 0 0 165 0 165 111 0 110 0 15 -36 c8 -20 28 -50 44 -67 23 -25 38
-31 83 -35 65 -5 93 8 102 48 11 52 -13 74 -169 150 -162 79 -226 129 -271
212 -25 44 -29 64 -29 123 0 39 6 88 13 110 29 85 115 159 218 185 44 11 171
4 188 -10z m2035 -389 l0 -400 33 -3 32 -3 3 -107 3 -108 -256 0 -255 0 0 110
0 110 40 0 40 0 0 290 0 290 -40 0 -40 0 0 103 c0 57 3 107 7 110 3 4 102 7
220 7 l213 0 0 -399z m1750 223 l0 -133 73 -3 72 -3 3 -112 3 -113 -76 0 -75
0 1 -92 c1 -51 4 -104 8 -118 7 -24 11 -25 74 -24 l67 1 0 -98 c0 -90 -2 -99
-22 -114 -41 -28 -130 -49 -218 -49 -76 0 -93 3 -145 30 -46 23 -67 42 -90 79
-30 48 -30 49 -33 217 l-3 168 -45 0 -44 0 0 115 0 115 45 0 45 0 0 53 0 53
127 60 c70 32 145 68 168 80 66 33 65 35 65 -112z m-2666 -129 c118 -21 203
-61 270 -127 56 -56 77 -94 96 -168 15 -58 -1 -197 -21 -184 -5 3 -6 -1 -3 -9
7 -20 -71 -113 -129 -153 -195 -134 -555 -117 -719 35 -70 64 -101 130 -106
226 -5 108 19 175 93 250 115 120 306 167 519 130z m4192 -11 c96 -25 161 -60
220 -118 87 -88 119 -189 94 -298 -50 -213 -286 -334 -580 -299 -246 30 -400
171 -400 366 0 132 76 247 206 313 52 26 84 35 204 56 44 8 196 -4 256 -20z
m1314 -17 c58 -30 105 -92 119 -157 6 -28 11 -109 11 -180 l0 -129 43 -3 42
-3 3 -107 3 -108 -226 0 -225 0 0 193 c0 202 -9 260 -40 277 -27 14 -85 12
-125 -4 l-35 -15 0 -105 c0 -59 0 -109 0 -113 0 -5 22 -9 50 -11 l50 -3 0
-110 0 -109 -280 0 -281 0 3 108 3 107 48 3 47 3 0 134 0 134 -47 3 -48 3 0
105 0 105 228 3 227 2 0 -45 c0 -46 9 -56 29 -31 17 20 126 67 179 76 72 13
171 3 222 -23z m716 18 c43 -8 82 -19 88 -25 15 -15 23 -12 29 10 5 18 14 20
111 20 l106 0 0 -105 0 -105 -97 0 c-88 0 -99 2 -130 26 -49 37 -96 54 -153
54 -63 0 -90 -13 -90 -45 0 -28 -7 -25 170 -64 273 -59 341 -105 348 -233 4
-55 0 -75 -18 -110 -27 -52 -38 -61 -119 -100 -60 -29 -72 -32 -170 -31 -76 0
-119 5 -151 17 -80 31 -80 31 -80 2 l0 -26 -110 0 -110 0 0 110 0 110 98 0
c95 0 98 -1 152 -37 47 -31 64 -37 125 -41 78 -5 115 7 115 37 0 27 -17 37
-100 59 -253 69 -289 82 -342 124 -103 81 -89 237 27 316 28 19 57 31 67 29
10 -3 16 -1 13 3 -5 9 32 15 107 18 20 1 71 -5 114 -13z m-4716 -223 c5 -207
6 -225 24 -238 26 -18 97 -18 141 0 l35 15 0 115 0 116 -50 0 -50 0 0 110 0
110 230 0 230 0 0 -245 0 -245 45 0 45 0 0 -110 0 -110 -225 0 -225 0 0 45 c0
25 -3 45 -6 45 -4 0 -21 -9 -39 -20 -48 -30 -153 -67 -212 -75 -56 -7 -163 10
-163 26 0 6 -4 8 -10 4 -12 -8 -84 62 -104 102 -23 46 -38 160 -34 268 l3 95
-42 0 -43 0 0 110 0 110 223 -2 222 -3 5 -223z m1850 -17 l0 -245 30 0 30 0 0
-110 0 -110 -245 0 -245 0 0 110 0 110 35 0 35 0 0 135 0 135 -35 0 -35 0 0
110 0 110 215 0 215 0 0 -245z m-444 -45 c11 0 14 -15 14 -64 0 -60 -1 -64
-25 -68 -14 -3 -25 -1 -25 3 0 5 -14 16 -31 24 -24 13 -37 14 -61 6 -46 -16
-48 -15 -48 39 l0 50 53 0 c28 0 59 5 67 10 8 5 21 8 28 5 8 -3 20 -5 28 -5z
m-1286 -50 c0 -27 1 -53 3 -57 1 -5 -10 -9 -25 -11 -28 -3 -28 -3 -28 57 0 58
1 61 25 61 23 0 25 -3 25 -50z m3010 -14 c0 -63 0 -64 -30 -68 -24 -4 -30 -1
-25 9 3 8 5 39 5 69 0 51 1 54 25 54 24 0 25 -2 25 -64z m564 17 c12 -73 9
-83 -24 -83 -30 0 -30 1 -30 53 0 58 4 67 30 67 12 0 19 -11 24 -37z m-6363
-111 c-7 -2 -23 6 -35 18 l-21 22 35 -18 c21 -10 30 -19 21 -22z"/>
<path d="M7484 3542 c-39 -31 -58 -82 -57 -153 1 -72 19 -118 55 -143 32 -23
117 -20 146 4 73 61 68 256 -9 295 -38 20 -109 19 -135 -3z m113 -82 c7 -14
13 -43 13 -65 0 -54 -19 -89 -51 -93 -41 -5 -59 21 -59 86 0 71 20 105 58 100
16 -2 31 -13 39 -28z"/>
<path d="M11611 3530 c-48 -49 -63 -166 -28 -235 24 -48 49 -65 99 -65 93 0
126 36 136 147 10 121 -35 183 -132 183 -36 0 -50 -6 -75 -30z m127 -70 c16
-30 11 -122 -7 -144 -19 -23 -68 -20 -81 3 -16 30 -12 123 6 149 21 31 64 26
82 -8z"/>
</g>
</svg>
